<?xml version="1.0" encoding="UTF-8" standalone="no"?>
<!-- Generator: Adobe Illustrator 24.0.2, SVG Export Plug-In . SVG Version: 6.00 Build 0)  -->

<svg
   version="1.1"
   id="svg8"
   inkscape:version="1.2.1 (9c6d41e410, 2022-07-14)"
   sodipodi:docname="huawei-seeklogo.com.svg"
   x="0px"
   y="0px"
   viewBox="0 0 1920 600.00006"
   xml:space="preserve"
   width="1920"
   height="600"
   xmlns:inkscape="http://www.inkscape.org/namespaces/inkscape"
   xmlns:sodipodi="http://sodipodi.sourceforge.net/DTD/sodipodi-0.dtd"
   xmlns="http://www.w3.org/2000/svg"
   xmlns:svg="http://www.w3.org/2000/svg"><defs
   id="defs20" />
<style
   type="text/css"
   id="style12">
	.st0{fill:#232527;}
	.st1{fill:#CF0A2C;}
</style>
<sodipodi:namedview
   bordercolor="#666666"
   borderopacity="1.0"
   id="base"
   inkscape:current-layer="svg8"
   inkscape:cx="511.44035"
   inkscape:cy="358.60994"
   inkscape:document-units="mm"
   inkscape:pageopacity="0.0"
   inkscape:pageshadow="2"
   inkscape:window-height="1046"
   inkscape:window-maximized="1"
   inkscape:window-width="1920"
   inkscape:window-x="-11"
   inkscape:window-y="-11"
   inkscape:zoom="0.41549323"
   pagecolor="#ffffff"
   showgrid="false"
   inkscape:showpageshadow="2"
   inkscape:pagecheckerboard="0"
   inkscape:deskcolor="#d1d1d1">
	</sodipodi:namedview>
<g
   id="g1133"
   transform="matrix(0.35277777,0,0,0.35277777,111.58742,140.59444)">
</g>
<g
   id="g11533"
   transform="translate(241.01412,428.17778)">
	<path
   id="path4250"
   inkscape:connector-curvature="0"
   class="st0"
   d="m 777.2385,-223.77352 v 121.80772 c 0,34.6485 -17.21663,52.941182 -48.42179,52.941182 -31.42038,0 -48.63701,-18.938306 -48.63701,-54.447632 v -120.08608 h -43.04162 v 121.59253 c 0,59.82784 33.14204,94.0459167 91.24822,94.0459167 58.53657,0 92.10903,-34.8637007 92.10903,-95.9827767 v -120.08608 z m 158.60833,0 -93.61549,212.625516 h 44.11764 l 18.07748,-41.104733 1.29125,-3.012913 h 97.27399 l 19.1536,44.332856 h 45.1937 l -92.75472,-211.334276 -0.86083,-1.29126 z m 256.52807,0 -48.2066,146.341442 -46.9154,-146.126252 h -46.0545 l 74.0316,212.625536 h 35.7245 l 48.4218,-139.670006 48.4218,139.670006 h 35.9397 l 73.8163,-212.625536 h -44.7631 l -47.1307,146.126252 -48.2066,-146.341442 z m 422.2381,0 v 212.410308 h 42.6111 V -223.77352 Z m -1221.09041,0 v 212.625516 h 43.0416 v -86.29842 h 97.48925 v 86.29842 h 43.25681 V -223.77352 h -43.25681 v 85.868 h -97.48925 v -85.868 z m 1008.89531,0.21519 v 212.410326 h 160.5453 V -49.885449 H 1445.029 v -52.725971 h 78.551 v -38.73744 h -78.551 v -43.47203 h 114.0604 v -38.73744 z m -448.27839,53.5868 30.77474,71.233863 h -0.21519 l 2.15208,4.949778 H 921.6431 l 2.15208,-4.949778 v 0 z"
   style="stroke-width:2.15208" />
	<path
   id="path4252"
   inkscape:connector-curvature="0"
   class="st1"
   d="m 28.1,-390.2 c -8,0.7 -29.4,5.6 -29.4,5.6 v 0 c -48.4,12.5 -59.9,56.5 -59.9,56.5 -2.4,7.4 -3.4,15 -3.8,22.1 v 9.7 c 0.6,15 4,26.2 4,26.2 16.2,71.8 95.7,189.7 112.8,214.4 1.2,1.2 2.2,0.8 2.2,0.8 1.8,-0.5 1.7,-2.3 1.7,-2.3 v 0 c 26.4,-263.2 -27.6,-333 -27.6,-333 z m 87,0 c 0,0 -54.2,69.8 -27.9,333.2 v 0 c 0.2,1.7 1.4,2 1.4,2 1.8,0.7 2.7,-1 2.7,-1 v 0 c 17.5,-25.4 96.6,-142.6 112.7,-214.1 0,0 8.7,-34.6 0.3,-58 0,0 -12,-44.6 -60.5,-56.4 0.1,0 -13.8,-3.6 -28.7,-5.7 z m -250,79.1 c 0,0 -46.2,43.8 -48.4,90.2 v 0 7 c 0,0.5 0.1,1.1 0.1,1.6 2,37.4 30.2,59.6 30.2,59.6 45.3,44.3 155.2,100.1 180.7,112.8 0.4,0.1 1.7,0.6 2.5,-0.4 0,0 0.4,-0.3 0.6,-0.9 v -1.2 c 0,-0.1 -0.1,-0.1 -0.1,-0.2 v 0 c -69.9,-152.7 -165.6,-268.6 -165.6,-268.5 z m 412.9,0 c 0,0 -95.4,115.5 -165.3,268 v 0 c 0,0 -0.8,1.8 0.5,2.9 0,0 0.4,0.3 0.9,0.4 h 1 c 0.2,-0.1 0.4,-0.1 0.5,-0.2 v 0 c 26.2,-13 135.3,-68.5 180.5,-112.5 0,0 28.6,-23 30.1,-59.9 3.4,-51.3 -48.2,-98.8 -48.2,-98.7 z m 85.9,151.6 c 0,0 -155.5,83.5 -235.9,137.7 v 0 0 c 0,0 -1.5,1 -0.9,2.7 0,0 0.8,1.4 1.9,1.4 v 0 c 28.8,0.1 137.8,0.2 140.5,-0.3 0,0 14.1,-0.6 31.5,-7.3 0,0 38.8,-12.3 58.9,-56.3 0,0 9.2,-18.4 9.3,-44.3 v -1.1 c -0.1,-9.9 -1.5,-21 -5.3,-32.5 z m -584.7,0.4 c -14.2,43.8 4.9,79.1 4.9,79.2 19.9,41.9 57.7,54.7 57.7,54.7 17.5,7.2 35,7.7 35,7.7 2.7,0.5 108.8,0.1 137.2,-0.1 1.2,0 1.9,-1.2 1.9,-1.2 0.1,-0.1 0.2,-0.3 0.2,-0.4 v -1.1 c -0.2,-0.7 -0.9,-1.3 -0.9,-1.3 v 0 c -80.3,-54.2 -236,-137.5 -236,-137.5 z m 231.6,154.9 -183,6.4 c 19.8,35.4 53.3,62.9 88.1,54.4 24,-6 78.4,-44 96.4,-56.8 l -0.1,-0.1 c 1.4,-1.3 0.9,-2.3 0.9,-2.3 -0.4,-1.5 -2.3,-1.5 -2.3,-1.6 z M 132,-4.1 v 0 c 0,0.1 -1.6,0.3 -2.1,1.5 0,0 -0.4,1.6 0.7,2.5 v 0 c 17.5,12.6 70.6,49.7 96.2,56.9 0,0 3.9,1.3 10.4,1.6 h 3.9 c 17.1,-0.6 47,-9.4 74.1,-56 z" />
</g>
</svg>
